# xmcd
#
# Track frame offsets:
#	150
#	16004
#	33896
#	50504
#	68974
#	92769
#	109517
#	126034
#	142127
#	159728
#	176321
#	189043
#	203133
#
# Disc length: 3143 seconds
#
# Revision: 0
# Processed by: cddbd v1.5.2PL0 Copyright (c) Steve Scherf et al.
# Submitted via: EasyCDDAExtractor 16.1.0.1
#
DISCID=a40c450d
DTITLE=Flynnville Train - Back On Track
DYEAR=2013
DGENRE=Country
TTITLE0=High On The Mountain
TTITLE1=Home
TTITLE2=Don't Misunderstand Me
TTITLE3=Friends Of Sinners
TTITLE4=Sandman
TTITLE5=33 Steps
TTITLE6=Preachin' To The Choir
TTITLE7=The One You Love
TTITLE8=On Our Way
TTITLE9=Alright
TTITLE10=Tip A Can
TTITLE11=Scratch Me Where I'm Itchin'
TTITLE12=Dixie Train
EXTD=
EXTT0=
EXTT1=
EXTT2=
EXTT3=
EXTT4=
EXTT5=
EXTT6=
EXTT7=
EXTT8=
EXTT9=
EXTT10=
EXTT11=
EXTT12=
PLAYORDER=
